<?xml version="1.0" encoding="UTF-8"?>
<svg width="164px" height="26px" viewBox="0 0 164 26" version="1.1" xmlns="http://www.w3.org/2000/svg" xmlns:xlink="http://www.w3.org/1999/xlink">
    <!-- Generator: Sketch 53.1 (72631) - https://sketchapp.com -->
    <title>Group 3</title>
    <desc>Created with Sketch.</desc>
    <defs>
        <polygon id="path-1" points="14.6825397 21 6.26694766 25.3262379 7.87418272 16.163119 1.06582575 9.67376208 10.4747437 8.33688104 14.6825397 0 18.8903357 8.33688104 28.2992536 9.67376208 21.4908966 16.163119 23.0981317 25.3262379"></polygon>
    </defs>
    <g id="Page-1" stroke="none" stroke-width="1" fill="none" fill-rule="evenodd">
        <g id="Desktop" transform="translate(-718.000000, -790.000000)">
            <g id="Group-3" transform="translate(718.000000, 790.000000)">
                <polygon id="Star" fill="#FFC259" points="14.3174603 21 5.90186829 25.3262379 7.50910335 16.163119 0.700746386 9.67376208 10.1096643 8.33688104 14.3174603 0 18.5252563 8.33688104 27.9341742 9.67376208 21.1258173 16.163119 22.7330523 25.3262379"></polygon>
                <polygon id="Star" fill="#FFC259" points="48.1587302 21 39.7431381 25.3262379 41.3503732 16.163119 34.5420162 9.67376208 43.9509341 8.33688104 48.1587302 0 52.3665262 8.33688104 61.7754441 9.67376208 54.9670871 16.163119 56.5743222 25.3262379"></polygon>
                <polygon id="Star" fill="#FFC259" points="82 21 73.584408 25.3262379 75.191643 16.163119 68.3832861 9.67376208 77.792204 8.33688104 82 0 86.207796 8.33688104 95.6167139 9.67376208 88.808357 16.163119 90.415592 25.3262379"></polygon>
                <polygon id="Star" fill="#FFC259" points="115.84127 21 107.425678 25.3262379 109.032913 16.163119 102.224556 9.67376208 111.633474 8.33688104 115.84127 0 120.049066 8.33688104 129.457984 9.67376208 122.649627 16.163119 124.256862 25.3262379"></polygon>
                <g id="Rectangle" transform="translate(135.000000, 0.000000)">
                    <mask id="mask-2" fill="white">
                        <use xlink:href="#path-1"></use>
                    </mask>
                    <use id="Mask" fill="#DDDDDD" xlink:href="#path-1"></use>
                    <rect fill="#FFC259" mask="url(#mask-2)" x="-3" y="-2" width="18" height="32"></rect>
                </g>
            </g>
        </g>
    </g>
</svg>